<svg width="20" height="18" viewBox="0 0 20 18" fill="none" xmlns="http://www.w3.org/2000/svg">
<path d="M18.75 10.2484H3.925L8.4625 15.6984C8.67467 15.9537 8.77675 16.2828 8.74628 16.6133C8.7158 16.9439 8.55527 17.2488 8.3 17.4609C8.04473 17.6731 7.71563 17.7752 7.38509 17.7447C7.05456 17.7142 6.74967 17.5537 6.5375 17.2984L0.2875 9.79844C0.245451 9.73878 0.207849 9.67611 0.175 9.61093C0.175 9.54843 0.175 9.51093 0.0875002 9.44843C0.0308421 9.30511 0.0011764 9.15255 0 8.99844C0.0011764 8.84432 0.0308421 8.69176 0.0875002 8.54844C0.0875002 8.48594 0.0874998 8.44844 0.175 8.38594C0.207849 8.32076 0.245451 8.25809 0.2875 8.19843L6.5375 0.698437C6.65503 0.557333 6.8022 0.443857 6.96856 0.366081C7.13491 0.288305 7.31636 0.248138 7.5 0.248436C7.79206 0.247865 8.07511 0.349584 8.3 0.535935C8.42657 0.640872 8.5312 0.769749 8.60789 0.915183C8.68458 1.06062 8.73183 1.21975 8.74692 1.38347C8.76202 1.54719 8.74466 1.71228 8.69586 1.86929C8.64705 2.02629 8.56775 2.17212 8.4625 2.29843L3.925 7.74844H18.75C19.0815 7.74844 19.3995 7.88013 19.6339 8.11455C19.8683 8.34897 20 8.66691 20 8.99844C20 9.32996 19.8683 9.6479 19.6339 9.88232C19.3995 10.1167 19.0815 10.2484 18.75 10.2484Z" fill="white"/>
</svg>
