<svg width="20" height="18" viewBox="0 0 20 18" fill="none" xmlns="http://www.w3.org/2000/svg">
<path d="M1.25 10.2484L16.075 10.2484L11.5375 15.6984C11.3253 15.9537 11.2232 16.2828 11.2537 16.6133C11.2842 16.9439 11.4447 17.2488 11.7 17.4609C11.9553 17.6731 12.2844 17.7752 12.6149 17.7447C12.9454 17.7142 13.2503 17.5537 13.4625 17.2984L19.7125 9.79844C19.7545 9.73878 19.7922 9.67611 19.825 9.61093C19.825 9.54843 19.825 9.51093 19.9125 9.44843C19.9692 9.30511 19.9988 9.15255 20 8.99844C19.9988 8.84432 19.9692 8.69176 19.9125 8.54844C19.9125 8.48594 19.9125 8.44843 19.825 8.38593C19.7922 8.32076 19.7545 8.25809 19.7125 8.19843L13.4625 0.698435C13.345 0.557333 13.1978 0.443857 13.0314 0.366079C12.8651 0.288303 12.6836 0.248137 12.5 0.248434C12.2079 0.247864 11.9249 0.349583 11.7 0.535934C11.5734 0.640871 11.4688 0.769749 11.3921 0.915182C11.3154 1.06062 11.2682 1.21975 11.2531 1.38347C11.238 1.54719 11.2553 1.71228 11.3041 1.86929C11.3529 2.02629 11.4322 2.17212 11.5375 2.29843L16.075 7.74844L1.25 7.74844C0.91848 7.74844 0.600536 7.88013 0.366116 8.11455C0.131695 8.34897 0 8.66691 0 8.99844C0 9.32996 0.131695 9.6479 0.366116 9.88232C0.600536 10.1167 0.91848 10.2484 1.25 10.2484Z" fill="#787878"/>
</svg>
