<svg width="42" height="46" viewBox="0 0 42 46" fill="none" xmlns="http://www.w3.org/2000/svg">
<path d="M36.75 5H34.5V2.75C34.5 1.5125 33.4875 0.5 32.25 0.5C31.0125 0.5 30 1.5125 30 2.75V5H12V2.75C12 1.5125 10.9875 0.5 9.75 0.5C8.5125 0.5 7.5 1.5125 7.5 2.75V5H5.25C2.7525 5 0.7725 7.025 0.7725 9.5L0.75 41C0.75 43.475 2.7525 45.5 5.25 45.5H36.75C39.225 45.5 41.25 43.475 41.25 41V9.5C41.25 7.025 39.225 5 36.75 5ZM36.75 38.75C36.75 39.9875 35.7375 41 34.5 41H7.5C6.2625 41 5.25 39.9875 5.25 38.75V16.25H36.75V38.75ZM9.75 20.75H14.25V25.25H9.75V20.75ZM18.75 20.75H23.25V25.25H18.75V20.75ZM27.75 20.75H32.25V25.25H27.75V20.75Z" fill="black" fill-opacity="0.2"/>
</svg>
