<svg width="203" height="37" viewBox="0 0 203 37" fill="none" xmlns="http://www.w3.org/2000/svg">
<path d="M20.5 17.8047C20.5 24.8828 17.1484 28.4219 10.4453 28.4219C4.02344 28.4219 0.8125 25.0176 0.8125 18.209V2.79297H4.99609V17.3477C4.99609 22.293 6.91797 24.7656 10.7617 24.7656C14.4648 24.7656 16.3164 22.3809 16.3164 17.6113V2.79297H20.5V17.8047ZM41.998 28H37.9199V17.8574C37.9199 14.4941 36.7305 12.8125 34.3516 12.8125C33.1094 12.8125 32.084 13.2812 31.2754 14.2188C30.4668 15.1445 30.0625 16.3164 30.0625 17.7344V28H25.9668V10H30.0625V12.9883H30.1328C31.4805 10.7148 33.4258 9.57812 35.9688 9.57812C37.9258 9.57812 39.4199 10.2168 40.4512 11.4941C41.4824 12.7598 41.998 14.5938 41.998 16.9961V28ZM49.0469 6.2207C48.3789 6.2207 47.8047 6.00391 47.3242 5.57031C46.8555 5.13672 46.6211 4.58594 46.6211 3.91797C46.6211 3.25 46.8555 2.69336 47.3242 2.24805C47.8047 1.80273 48.3789 1.58008 49.0469 1.58008C49.7383 1.58008 50.3242 1.80273 50.8047 2.24805C51.2852 2.69336 51.5254 3.25 51.5254 3.91797C51.5254 4.55078 51.2852 5.0957 50.8047 5.55273C50.3242 5.99805 49.7383 6.2207 49.0469 6.2207ZM51.0684 28H46.9902V10H51.0684V28ZM72.7773 36.2793H68.6992V24.9062H68.6289C67.3984 27.25 65.3887 28.4219 62.5996 28.4219C60.3848 28.4219 58.6035 27.6191 57.2559 26.0137C55.9199 24.3965 55.252 22.1992 55.252 19.4219C55.252 16.4336 55.9844 14.0488 57.4492 12.2676C58.9258 10.4746 60.9062 9.57812 63.3906 9.57812C65.8047 9.57812 67.5508 10.5508 68.6289 12.4961H68.6992V10H72.7773V36.2793ZM68.752 19.8086V17.4883C68.752 16.1875 68.3301 15.0859 67.4863 14.1836C66.6543 13.2812 65.5938 12.8301 64.3047 12.8301C62.793 12.8301 61.5977 13.3984 60.7188 14.5352C59.8516 15.6602 59.418 17.2539 59.418 19.3164C59.418 21.1445 59.8398 22.5801 60.6836 23.623C61.5273 24.666 62.6172 25.1875 63.9531 25.1875C65.418 25.1875 66.584 24.6777 67.4512 23.6582C68.3184 22.6387 68.752 21.3555 68.752 19.8086ZM94.7324 6.34375H87.4902V28H83.3066V6.34375H76.082V2.79297H94.7324V6.34375ZM105.455 13.8848C104.963 13.498 104.254 13.3047 103.328 13.3047C102.121 13.3047 101.113 13.8496 100.305 14.9395C99.4961 16.0293 99.0918 17.5117 99.0918 19.3867V28H95.0137V10H99.0918V13.709H99.1621C99.5605 12.4434 100.17 11.459 100.99 10.7559C101.822 10.041 102.748 9.68359 103.768 9.68359C104.506 9.68359 105.068 9.79492 105.455 10.0176V13.8848ZM110.395 6.2207C109.727 6.2207 109.152 6.00391 108.672 5.57031C108.203 5.13672 107.969 4.58594 107.969 3.91797C107.969 3.25 108.203 2.69336 108.672 2.24805C109.152 1.80273 109.727 1.58008 110.395 1.58008C111.086 1.58008 111.672 1.80273 112.152 2.24805C112.633 2.69336 112.873 3.25 112.873 3.91797C112.873 4.55078 112.633 5.0957 112.152 5.55273C111.672 5.99805 111.086 6.2207 110.395 6.2207ZM112.416 28H108.338V10H112.416V28ZM121.908 25.3457H121.838V36.2793H117.76V10H121.838V13.1641H121.908C123.303 10.7734 125.342 9.57812 128.025 9.57812C130.311 9.57812 132.092 10.3809 133.369 11.9863C134.646 13.5918 135.285 15.748 135.285 18.4551C135.285 21.4551 134.564 23.8574 133.123 25.6621C131.682 27.4668 129.713 28.3691 127.217 28.3691C124.92 28.3691 123.15 27.3613 121.908 25.3457ZM121.803 18.2441V20.4766C121.803 21.7891 122.219 22.9023 123.051 23.8164C123.895 24.7305 124.961 25.1875 126.25 25.1875C127.762 25.1875 128.945 24.6016 129.801 23.4297C130.668 22.2461 131.102 20.5996 131.102 18.4902C131.102 16.7207 130.697 15.3379 129.889 14.3418C129.092 13.334 128.008 12.8301 126.637 12.8301C125.184 12.8301 124.012 13.3457 123.121 14.377C122.242 15.4082 121.803 16.6973 121.803 18.2441Z" fill="white"/>
<path d="M138.748 26.998V22.6914C139.135 23.043 139.592 23.3594 140.119 23.6406C140.658 23.9219 141.227 24.1621 141.824 24.3613C142.422 24.5488 143.02 24.6953 143.617 24.8008C144.215 24.9062 144.766 24.959 145.27 24.959C147.027 24.959 148.334 24.666 149.189 24.0801C150.057 23.4941 150.49 22.6445 150.49 21.5312C150.49 20.9336 150.344 20.418 150.051 19.9844C149.77 19.5391 149.371 19.1348 148.855 18.7715C148.34 18.4082 147.73 18.0625 147.027 17.7344C146.336 17.3945 145.592 17.043 144.795 16.6797C143.939 16.2227 143.143 15.7598 142.404 15.291C141.666 14.8223 141.021 14.3066 140.471 13.7441C139.932 13.1699 139.504 12.5254 139.188 11.8105C138.883 11.0957 138.73 10.2578 138.73 9.29688C138.73 8.11328 138.994 7.08789 139.521 6.2207C140.061 5.3418 140.764 4.62109 141.631 4.05859C142.51 3.48437 143.506 3.0625 144.619 2.79297C145.732 2.51172 146.869 2.37109 148.029 2.37109C150.666 2.37109 152.588 2.66992 153.795 3.26758V7.39844C152.365 6.36719 150.525 5.85156 148.275 5.85156C147.654 5.85156 147.033 5.91016 146.412 6.02734C145.803 6.14453 145.252 6.33789 144.76 6.60742C144.279 6.87695 143.887 7.22266 143.582 7.64453C143.277 8.06641 143.125 8.57617 143.125 9.17383C143.125 9.73633 143.242 10.2227 143.477 10.6328C143.711 11.043 144.051 11.418 144.496 11.7578C144.953 12.0977 145.504 12.4316 146.148 12.7598C146.805 13.0762 147.561 13.4219 148.416 13.7969C149.295 14.2539 150.121 14.7344 150.895 15.2383C151.68 15.7422 152.365 16.2988 152.951 16.9082C153.549 17.5176 154.018 18.1973 154.357 18.9473C154.709 19.6855 154.885 20.5293 154.885 21.4785C154.885 22.7559 154.627 23.834 154.111 24.7129C153.596 25.5918 152.898 26.3066 152.02 26.8574C151.152 27.4082 150.15 27.8066 149.014 28.0527C147.877 28.2988 146.676 28.4219 145.41 28.4219C144.988 28.4219 144.467 28.3867 143.846 28.3164C143.236 28.2578 142.609 28.1641 141.965 28.0352C141.32 27.918 140.711 27.7715 140.137 27.5957C139.562 27.4199 139.1 27.2207 138.748 26.998ZM167.049 28.4219C164.271 28.4219 162.051 27.584 160.387 25.9082C158.734 24.2207 157.908 21.9883 157.908 19.2109C157.908 16.1875 158.77 13.8262 160.492 12.127C162.227 10.4277 164.559 9.57812 167.488 9.57812C170.301 9.57812 172.492 10.4043 174.062 12.0566C175.633 13.709 176.418 16 176.418 18.9297C176.418 21.8008 175.568 24.1035 173.869 25.8379C172.182 27.5605 169.908 28.4219 167.049 28.4219ZM167.242 12.8301C165.648 12.8301 164.389 13.3867 163.463 14.5C162.537 15.6133 162.074 17.1484 162.074 19.1055C162.074 20.9922 162.543 22.4805 163.48 23.5703C164.418 24.6484 165.672 25.1875 167.242 25.1875C168.848 25.1875 170.078 24.6543 170.934 23.5879C171.801 22.5215 172.234 21.0039 172.234 19.0352C172.234 17.0547 171.801 15.5254 170.934 14.4473C170.078 13.3691 168.848 12.8301 167.242 12.8301ZM190.164 4.67383C189.613 4.35742 188.986 4.19922 188.283 4.19922C186.303 4.19922 185.312 5.31836 185.312 7.55664V10H189.496V13.1992H185.33V28H181.252V13.1992H178.176V10H181.252V7.08203C181.252 5.18359 181.873 3.68945 183.115 2.59961C184.357 1.49805 185.91 0.947266 187.773 0.947266C188.781 0.947266 189.578 1.05859 190.164 1.28125V4.67383ZM202.557 27.8066C201.76 28.2051 200.711 28.4043 199.41 28.4043C195.918 28.4043 194.172 26.7285 194.172 23.377V13.1992H191.166V10H194.172V5.83398L198.25 4.67383V10H202.557V13.1992H198.25V22.1992C198.25 23.2656 198.443 24.0273 198.83 24.4844C199.217 24.9414 199.861 25.1699 200.764 25.1699C201.455 25.1699 202.053 24.9707 202.557 24.5723V27.8066Z" fill="#EB652C"/>
</svg>
