<svg width="212" height="36" viewBox="0 0 212 36" fill="none" xmlns="http://www.w3.org/2000/svg">
<path d="M14.418 2.40625H19.6738V19.3164C19.6738 21.2852 19.252 22.9434 18.4082 24.291C17.5762 25.6387 16.4219 26.6523 14.9453 27.332C13.4805 28.0117 11.793 28.3516 9.88281 28.3516C7.97266 28.3516 6.27344 28.0117 4.78516 27.332C3.30859 26.6523 2.14844 25.6387 1.30469 24.291C0.472656 22.9434 0.0566406 21.2852 0.0566406 19.3164V2.40625H5.33008V19.3164C5.33008 20.4648 5.51172 21.4023 5.875 22.1289C6.23828 22.8555 6.75977 23.3887 7.43945 23.7285C8.13086 24.0684 8.94531 24.2383 9.88281 24.2383C10.8438 24.2383 11.6582 24.0684 12.3262 23.7285C13.0059 23.3887 13.5215 22.8555 13.873 22.1289C14.2363 21.4023 14.418 20.4648 14.418 19.3164V2.40625ZM28.6562 13.041V28H23.5938V8.98047H28.3398L28.6562 13.041ZM27.918 17.8223H26.5469C26.5469 16.416 26.7285 15.1504 27.0918 14.0254C27.4551 12.8887 27.9648 11.9219 28.6211 11.125C29.2773 10.3164 30.0566 9.70117 30.959 9.2793C31.873 8.8457 32.8926 8.62891 34.0176 8.62891C34.9082 8.62891 35.7227 8.75781 36.4609 9.01562C37.1992 9.27344 37.832 9.68359 38.3594 10.2461C38.8984 10.8086 39.3086 11.5527 39.5898 12.4785C39.8828 13.4043 40.0293 14.5352 40.0293 15.8711V28H34.9316V15.8535C34.9316 15.0098 34.8145 14.3535 34.5801 13.8848C34.3457 13.416 34 13.0879 33.543 12.9004C33.0977 12.7012 32.5469 12.6016 31.8906 12.6016C31.2109 12.6016 30.6191 12.7363 30.1152 13.0059C29.623 13.2754 29.2129 13.6504 28.8848 14.1309C28.5684 14.5996 28.3281 15.1504 28.1641 15.7832C28 16.416 27.918 17.0957 27.918 17.8223ZM49.2227 8.98047V28H44.1426V8.98047H49.2227ZM43.8262 4.02344C43.8262 3.28516 44.084 2.67578 44.5996 2.19531C45.1152 1.71484 45.8066 1.47461 46.6738 1.47461C47.5293 1.47461 48.2148 1.71484 48.7305 2.19531C49.2578 2.67578 49.5215 3.28516 49.5215 4.02344C49.5215 4.76172 49.2578 5.37109 48.7305 5.85156C48.2148 6.33203 47.5293 6.57227 46.6738 6.57227C45.8066 6.57227 45.1152 6.33203 44.5996 5.85156C44.084 5.37109 43.8262 4.76172 43.8262 4.02344ZM64.6387 35.3125V12.8652L65.2891 8.98047H69.7363V35.3125H64.6387ZM52.6152 18.6836V18.3145C52.6152 16.8613 52.7734 15.543 53.0898 14.3594C53.418 13.1641 53.8984 12.1445 54.5312 11.3008C55.1641 10.4453 55.9375 9.78906 56.8516 9.33203C57.7773 8.86328 58.8438 8.62891 60.0508 8.62891C61.2109 8.62891 62.2129 8.86328 63.0566 9.33203C63.9004 9.80078 64.6094 10.4629 65.1836 11.3184C65.7695 12.1738 66.2383 13.1816 66.5898 14.3418C66.9414 15.502 67.2109 16.7734 67.3984 18.1562V18.9648C67.2227 20.2891 66.9531 21.5195 66.5898 22.6562C66.2383 23.793 65.7695 24.7891 65.1836 25.6445C64.6094 26.5 63.8945 27.168 63.0391 27.6484C62.1953 28.1172 61.1875 28.3516 60.0156 28.3516C58.832 28.3516 57.7773 28.1113 56.8516 27.6309C55.9375 27.1387 55.1641 26.459 54.5312 25.5918C53.8984 24.7246 53.418 23.7051 53.0898 22.5332C52.7734 21.3496 52.6152 20.0664 52.6152 18.6836ZM57.6777 18.3145V18.6836C57.6777 19.4688 57.7422 20.207 57.8711 20.8984C58 21.5781 58.2051 22.1816 58.4863 22.709C58.7793 23.2363 59.1543 23.6523 59.6113 23.957C60.0684 24.25 60.6309 24.3965 61.2988 24.3965C62.2246 24.3965 62.9688 24.1973 63.5312 23.7988C64.1055 23.3887 64.5273 22.832 64.7969 22.1289C65.0781 21.4258 65.2422 20.623 65.2891 19.7207V17.418C65.2539 16.6797 65.1543 16.0176 64.9902 15.4316C64.8379 14.834 64.6035 14.3242 64.2871 13.9023C63.9824 13.4805 63.584 13.1582 63.0918 12.9355C62.6113 12.7012 62.0254 12.584 61.334 12.584C60.6777 12.584 60.1152 12.7305 59.6465 13.0234C59.1777 13.3164 58.7969 13.7266 58.5039 14.2539C58.2227 14.7695 58.0117 15.373 57.8711 16.0645C57.7422 16.7559 57.6777 17.5059 57.6777 18.3145ZM85.4863 2.40625V28H80.2305V2.40625H85.4863ZM93.3613 2.40625V6.53711H72.4785V2.40625H93.3613ZM99.8828 13.1289V28H94.8203V8.98047H99.584L99.8828 13.1289ZM105.613 8.85742L105.525 13.5508C105.279 13.5156 104.98 13.4863 104.629 13.4629C104.289 13.4277 103.979 13.4102 103.697 13.4102C102.982 13.4102 102.361 13.5039 101.834 13.6914C101.318 13.8672 100.885 14.1309 100.533 14.4824C100.193 14.834 99.9355 15.2617 99.7598 15.7656C99.5957 16.2695 99.502 16.8438 99.4785 17.4883L98.459 17.1719C98.459 15.9414 98.582 14.8105 98.8281 13.7793C99.0742 12.7363 99.4316 11.8281 99.9004 11.0547C100.381 10.2812 100.967 9.68359 101.658 9.26172C102.35 8.83984 103.141 8.62891 104.031 8.62891C104.312 8.62891 104.6 8.65234 104.893 8.69922C105.186 8.73438 105.426 8.78711 105.613 8.85742ZM113.348 8.98047V28H108.268V8.98047H113.348ZM107.951 4.02344C107.951 3.28516 108.209 2.67578 108.725 2.19531C109.24 1.71484 109.932 1.47461 110.799 1.47461C111.654 1.47461 112.34 1.71484 112.855 2.19531C113.383 2.67578 113.646 3.28516 113.646 4.02344C113.646 4.76172 113.383 5.37109 112.855 5.85156C112.34 6.33203 111.654 6.57227 110.799 6.57227C109.932 6.57227 109.24 6.33203 108.725 5.85156C108.209 5.37109 107.951 4.76172 107.951 4.02344ZM122.594 12.6367V35.3125H117.531V8.98047H122.225L122.594 12.6367ZM134.635 18.2793V18.6484C134.635 20.0312 134.471 21.3145 134.143 22.498C133.826 23.6816 133.357 24.7129 132.736 25.5918C132.115 26.459 131.342 27.1387 130.416 27.6309C129.502 28.1113 128.447 28.3516 127.252 28.3516C126.092 28.3516 125.084 28.1172 124.229 27.6484C123.373 27.1797 122.652 26.5234 122.066 25.6797C121.492 24.8242 121.029 23.834 120.678 22.709C120.326 21.584 120.057 20.377 119.869 19.0879V18.1211C120.057 16.7383 120.326 15.4727 120.678 14.3242C121.029 13.1641 121.492 12.1621 122.066 11.3184C122.652 10.4629 123.367 9.80078 124.211 9.33203C125.066 8.86328 126.068 8.62891 127.217 8.62891C128.424 8.62891 129.484 8.85742 130.398 9.31445C131.324 9.77148 132.098 10.4277 132.719 11.2832C133.352 12.1387 133.826 13.1582 134.143 14.3418C134.471 15.5254 134.635 16.8379 134.635 18.2793ZM129.555 18.6484V18.2793C129.555 17.4707 129.484 16.7266 129.344 16.0469C129.215 15.3555 129.004 14.752 128.711 14.2363C128.43 13.7207 128.055 13.3223 127.586 13.041C127.129 12.748 126.572 12.6016 125.916 12.6016C125.225 12.6016 124.633 12.7129 124.141 12.9355C123.66 13.1582 123.268 13.4805 122.963 13.9023C122.658 14.3242 122.43 14.8281 122.277 15.4141C122.125 16 122.031 16.6621 121.996 17.4004V19.8438C122.055 20.7109 122.219 21.4902 122.488 22.1816C122.758 22.8613 123.174 23.4004 123.736 23.7988C124.299 24.1973 125.037 24.3965 125.951 24.3965C126.619 24.3965 127.182 24.25 127.639 23.957C128.096 23.6523 128.465 23.2363 128.746 22.709C129.039 22.1816 129.244 21.5723 129.361 20.8809C129.49 20.1895 129.555 19.4453 129.555 18.6484Z" fill="#00BED6"/>
<path d="M160.387 21.3027C160.387 20.8457 160.316 20.4355 160.176 20.0723C160.047 19.6973 159.801 19.3574 159.438 19.0527C159.074 18.7363 158.564 18.4258 157.908 18.1211C157.252 17.8164 156.402 17.5 155.359 17.1719C154.199 16.7969 153.098 16.375 152.055 15.9062C151.023 15.4375 150.109 14.8926 149.312 14.2715C148.527 13.6387 147.906 12.9062 147.449 12.0742C147.004 11.2422 146.781 10.2754 146.781 9.17383C146.781 8.10742 147.016 7.14062 147.484 6.27344C147.953 5.39453 148.609 4.64453 149.453 4.02344C150.297 3.39062 151.293 2.9043 152.441 2.56445C153.602 2.22461 154.873 2.05469 156.256 2.05469C158.143 2.05469 159.789 2.39453 161.195 3.07422C162.602 3.75391 163.691 4.68555 164.465 5.86914C165.25 7.05273 165.643 8.40625 165.643 9.92969H160.404C160.404 9.17969 160.246 8.52344 159.93 7.96094C159.625 7.38672 159.156 6.93555 158.523 6.60742C157.902 6.2793 157.117 6.11523 156.168 6.11523C155.254 6.11523 154.492 6.25586 153.883 6.53711C153.273 6.80664 152.816 7.17578 152.512 7.64453C152.207 8.10156 152.055 8.61719 152.055 9.19141C152.055 9.625 152.16 10.0176 152.371 10.3691C152.594 10.7207 152.922 11.0488 153.355 11.3535C153.789 11.6582 154.322 11.9453 154.955 12.2148C155.588 12.4844 156.32 12.748 157.152 13.0059C158.547 13.4277 159.771 13.9023 160.826 14.4297C161.893 14.957 162.783 15.5488 163.498 16.2051C164.213 16.8613 164.752 17.6055 165.115 18.4375C165.479 19.2695 165.66 20.2129 165.66 21.2676C165.66 22.3809 165.443 23.377 165.01 24.2559C164.576 25.1348 163.949 25.8789 163.129 26.4883C162.309 27.0977 161.33 27.5605 160.193 27.877C159.057 28.1934 157.785 28.3516 156.379 28.3516C155.113 28.3516 153.865 28.1875 152.635 27.8594C151.404 27.5195 150.285 27.0098 149.277 26.3301C148.281 25.6504 147.484 24.7832 146.887 23.7285C146.289 22.6738 145.99 21.4258 145.99 19.9844H151.281C151.281 20.7812 151.404 21.4551 151.65 22.0059C151.896 22.5566 152.242 23.002 152.688 23.3418C153.145 23.6816 153.684 23.9277 154.305 24.0801C154.938 24.2324 155.629 24.3086 156.379 24.3086C157.293 24.3086 158.043 24.1797 158.629 23.9219C159.227 23.6641 159.666 23.3066 159.947 22.8496C160.24 22.3926 160.387 21.877 160.387 21.3027ZM168.121 18.6836V18.3145C168.121 16.9199 168.32 15.6367 168.719 14.4648C169.117 13.2812 169.697 12.2559 170.459 11.3887C171.221 10.5215 172.158 9.84766 173.271 9.36719C174.385 8.875 175.662 8.62891 177.104 8.62891C178.545 8.62891 179.828 8.875 180.953 9.36719C182.078 9.84766 183.021 10.5215 183.783 11.3887C184.557 12.2559 185.143 13.2812 185.541 14.4648C185.939 15.6367 186.139 16.9199 186.139 18.3145V18.6836C186.139 20.0664 185.939 21.3496 185.541 22.5332C185.143 23.7051 184.557 24.7305 183.783 25.6094C183.021 26.4766 182.084 27.1504 180.971 27.6309C179.857 28.1113 178.58 28.3516 177.139 28.3516C175.697 28.3516 174.414 28.1113 173.289 27.6309C172.176 27.1504 171.232 26.4766 170.459 25.6094C169.697 24.7305 169.117 23.7051 168.719 22.5332C168.32 21.3496 168.121 20.0664 168.121 18.6836ZM173.184 18.3145V18.6836C173.184 19.4805 173.254 20.2246 173.395 20.916C173.535 21.6074 173.758 22.2168 174.062 22.7441C174.379 23.2598 174.789 23.6641 175.293 23.957C175.797 24.25 176.412 24.3965 177.139 24.3965C177.842 24.3965 178.445 24.25 178.949 23.957C179.453 23.6641 179.857 23.2598 180.162 22.7441C180.467 22.2168 180.689 21.6074 180.83 20.916C180.982 20.2246 181.059 19.4805 181.059 18.6836V18.3145C181.059 17.541 180.982 16.8145 180.83 16.1348C180.689 15.4434 180.461 14.834 180.145 14.3066C179.84 13.7676 179.436 13.3457 178.932 13.041C178.428 12.7363 177.818 12.584 177.104 12.584C176.389 12.584 175.779 12.7363 175.275 13.041C174.783 13.3457 174.379 13.7676 174.062 14.3066C173.758 14.834 173.535 15.4434 173.395 16.1348C173.254 16.8145 173.184 17.541 173.184 18.3145ZM195.701 28H190.604V7.29297C190.604 5.85156 190.885 4.63867 191.447 3.6543C192.021 2.6582 192.824 1.9082 193.855 1.4043C194.898 0.888672 196.135 0.630859 197.564 0.630859C198.033 0.630859 198.484 0.666016 198.918 0.736328C199.352 0.794922 199.773 0.871094 200.184 0.964844L200.131 4.7793C199.908 4.7207 199.674 4.67969 199.428 4.65625C199.182 4.63281 198.895 4.62109 198.566 4.62109C197.957 4.62109 197.436 4.72656 197.002 4.9375C196.58 5.13672 196.258 5.43555 196.035 5.83398C195.812 6.23242 195.701 6.71875 195.701 7.29297V28ZM199.498 8.98047V12.5664H187.773V8.98047H199.498ZM211.469 8.98047V12.5664H200.395V8.98047H211.469ZM203.137 4.28711H208.199V22.2695C208.199 22.8203 208.27 23.2422 208.41 23.5352C208.562 23.8281 208.785 24.0332 209.078 24.1504C209.371 24.2559 209.74 24.3086 210.186 24.3086C210.502 24.3086 210.783 24.2969 211.029 24.2734C211.287 24.2383 211.504 24.2031 211.68 24.168L211.697 27.8945C211.264 28.0352 210.795 28.1465 210.291 28.2285C209.787 28.3105 209.23 28.3516 208.621 28.3516C207.508 28.3516 206.535 28.1699 205.703 27.8066C204.883 27.4316 204.25 26.834 203.805 26.0137C203.359 25.1934 203.137 24.1152 203.137 22.7793V4.28711Z" fill="#EB652C"/>
</svg>
