<svg width="18" height="18" viewBox="0 0 18 18" fill="none" xmlns="http://www.w3.org/2000/svg">
<path d="M16.231 12.26L13.691 11.97C13.081 11.9 12.481 12.11 12.051 12.54L10.211 14.38C7.38102 12.94 5.06102 10.63 3.62102 7.79001L5.47102 5.94001C5.90102 5.51001 6.11102 4.91001 6.04102 4.30001L5.75102 1.78001C5.63102 0.77001 4.78102 0.0100098 3.76102 0.0100098H2.03102C0.901018 0.0100098 -0.0389828 0.95001 0.0310172 2.08001C0.561017 10.62 7.39102 17.44 15.921 17.97C17.051 18.04 17.991 17.1 17.991 15.97V14.24C18.001 13.23 17.241 12.38 16.231 12.26Z" fill="black" fill-opacity="0.54"/>
</svg>
