<svg width="16" height="16" viewBox="0 0 16 16" fill="none" xmlns="http://www.w3.org/2000/svg">
<path d="M14.328 14.5568C14.5232 14.752 14.8398 14.752 15.0351 14.5568C15.2303 14.3615 15.2303 14.0449 15.0351 13.8497L14.328 14.5568ZM10.92 9.73458C10.7247 9.53932 10.4081 9.53932 10.2129 9.73458C10.0176 9.92984 10.0176 10.2464 10.2129 10.4417L10.92 9.73458ZM15.0351 13.8497L10.92 9.73458L10.2129 10.4417L14.328 14.5568L15.0351 13.8497Z" fill="#727272"/>
<path d="M2.40542 5.69868C2.83632 4.09055 4.09242 2.83445 5.70056 2.40355V2.40355C7.30869 1.97265 9.02455 2.43241 10.2018 3.60965V3.60965C11.379 4.78689 11.8388 6.50275 11.4079 8.11089V8.11089C10.977 9.71902 9.7209 10.9751 8.11276 11.406V11.406C6.50462 11.8369 4.78876 11.3772 3.61152 10.1999V10.1999C2.43429 9.02268 1.97452 7.30682 2.40542 5.69868V5.69868Z" stroke="#727272" stroke-width="1.00892" stroke-linecap="round" stroke-linejoin="round"/>
</svg>
