<svg width="39" height="39" viewBox="0 0 39 39" fill="none" xmlns="http://www.w3.org/2000/svg">
<path d="M11.7 28.6C14.5719 28.6 16.9 26.2718 16.9 23.4C16.9 20.5281 14.5719 18.2 11.7 18.2C8.82812 18.2 6.5 20.5281 6.5 23.4C6.5 26.2718 8.82812 28.6 11.7 28.6Z" fill="white"/>
<path d="M24.05 32.5C25.845 32.5 27.3 31.0449 27.3 29.25C27.3 27.4551 25.845 26 24.05 26C22.2551 26 20.8 27.4551 20.8 29.25C20.8 31.0449 22.2551 32.5 24.05 32.5Z" fill="white"/>
<path d="M24.7 22.1C29.0078 22.1 32.5 18.6078 32.5 14.3C32.5 9.99218 29.0078 6.5 24.7 6.5C20.3922 6.5 16.9 9.99218 16.9 14.3C16.9 18.6078 20.3922 22.1 24.7 22.1Z" fill="white"/>
</svg>
