<svg width="32" height="32" viewBox="0 0 32 32" fill="none" xmlns="http://www.w3.org/2000/svg">
<path d="M22.7867 6.07994C21.8534 4.70661 20.7867 3.42661 19.5867 2.27995C19.12 1.82661 18.3334 2.25328 18.4667 2.89328C18.72 4.14661 18.9867 5.79994 18.9867 7.27994C18.9867 10.0266 17.1867 12.2533 14.44 12.2533C12.3867 12.2533 10.7067 11.0133 9.97337 9.23994C9.84004 8.97328 9.78671 8.81328 9.70671 8.51994C9.56004 7.95994 8.82671 7.78661 8.50671 8.27994C8.26671 8.63994 8.04004 8.99994 7.82671 9.38661C6.24004 12.1066 5.33337 15.2799 5.33337 18.6666C5.33337 24.5599 10.1067 29.3333 16 29.3333C21.8934 29.3333 26.6667 24.5599 26.6667 18.6666C26.6667 14.0133 25.2267 9.69328 22.7867 6.07994ZM15.6134 25.3333C13.24 25.3333 11.32 23.4666 11.32 21.1466C11.32 18.9866 12.72 17.4666 15.0667 16.9866C17.0267 16.5866 19.04 15.7466 20.44 14.4266C20.8134 14.0799 21.4267 14.2399 21.5334 14.7333C21.84 16.0933 22 17.5066 22 18.9333C22.0134 22.4666 19.1467 25.3333 15.6134 25.3333Z" fill="white"/>
</svg>
