<svg width="32" height="32" viewBox="0 0 32 32" fill="none" xmlns="http://www.w3.org/2000/svg">
<path d="M7.57079 5.86501L7.01829 5.31251C6.46579 4.76001 5.57329 4.77417 5.03496 5.31251L5.02079 5.32667C4.46829 5.87917 4.46829 6.77167 5.02079 7.31001L5.57329 7.86251C6.12579 8.41501 7.00413 8.41501 7.55663 7.86251L7.57079 7.84834C8.12329 7.31001 8.12329 6.40334 7.57079 5.86501ZM3.26413 14.875H1.81913C1.03996 14.875 0.416626 15.4983 0.416626 16.2775V16.2917C0.416626 17.0708 1.03996 17.6942 1.81913 17.6942H3.24996C4.04329 17.7083 4.66663 17.085 4.66663 16.3058V16.2917C4.66663 15.4983 4.04329 14.875 3.26413 14.875ZM16.0141 0.779175H16C15.2066 0.779175 14.5833 1.40251 14.5833 2.18167V3.54167C14.5833 4.32084 15.2066 4.94417 15.9858 4.94417H16C16.7933 4.95834 17.4166 4.33501 17.4166 3.55584V2.18167C17.4166 1.40251 16.7933 0.779175 16.0141 0.779175ZM26.9791 5.32667C26.4266 4.77417 25.5341 4.77417 24.9816 5.31251L24.4291 5.86501C23.8766 6.41751 23.8766 7.31001 24.4291 7.84834L24.4433 7.86251C24.9958 8.41501 25.8883 8.41501 26.4266 7.86251L26.9791 7.31001C27.5316 6.75751 27.5316 5.87917 26.9791 5.32667ZM24.415 26.7183L24.9675 27.2708C25.52 27.8233 26.4125 27.8233 26.965 27.2708C27.5175 26.7183 27.5175 25.8258 26.965 25.2733L26.4125 24.7208C25.86 24.1683 24.9675 24.1825 24.4291 24.7208C23.8625 25.2875 23.8625 26.1658 24.415 26.7183ZM27.3333 16.2775V16.2917C27.3333 17.0708 27.9566 17.6942 28.7358 17.6942H30.1666C30.9458 17.6942 31.5691 17.0708 31.5691 16.2917V16.2775C31.5691 15.4983 30.9458 14.875 30.1666 14.875H28.7358C27.9566 14.875 27.3333 15.4983 27.3333 16.2775ZM16 7.79167C11.3108 7.79167 7.49996 11.6025 7.49996 16.2917C7.49996 20.9808 11.3108 24.7917 16 24.7917C20.6891 24.7917 24.5 20.9808 24.5 16.2917C24.5 11.6025 20.6891 7.79167 16 7.79167ZM15.9858 31.8042H16C16.7791 31.8042 17.4025 31.1808 17.4025 30.4017V29.0417C17.4025 28.2625 16.7791 27.6392 16 27.6392H15.9858C15.2066 27.6392 14.5833 28.2625 14.5833 29.0417V30.4017C14.5833 31.1808 15.2066 31.8042 15.9858 31.8042ZM5.02079 27.2567C5.57329 27.8092 6.46579 27.8092 7.01829 27.2567L7.57079 26.7042C8.12329 26.1517 8.10913 25.2592 7.57079 24.7208L7.55663 24.7067C7.00413 24.1542 6.11163 24.1542 5.55913 24.7067L5.00663 25.2592C4.46829 25.8258 4.46829 26.7042 5.02079 27.2567Z" fill="white"/>
</svg>
