<svg width="143" height="151" viewBox="0 0 143 151" fill="none" xmlns="http://www.w3.org/2000/svg">
<g clip-path="url(#clip0_760_2737)">
<path fill-rule="evenodd" clip-rule="evenodd" d="M108.676 93.1939C109.146 95.0662 110.228 96.7278 111.751 97.915C113.273 99.1022 115.148 99.747 117.079 99.747C119.009 99.747 120.884 99.1022 122.407 97.915C123.929 96.7278 125.011 95.0662 125.482 93.1939H132.46C129.675 98.8743 123.833 102.784 117.08 102.784C112.642 102.791 108.376 101.067 105.188 97.98C101.996 101.062 97.7323 102.784 93.2955 102.784C88.8586 102.784 84.595 101.062 81.4033 97.98C78.2115 101.062 73.9479 102.784 69.5111 102.784C65.0742 102.784 60.8106 101.062 57.6189 97.98C54.427 101.062 50.1633 102.784 45.7264 102.784C41.2894 102.784 37.0257 101.062 33.8339 97.98C30.6453 101.068 26.3789 102.792 21.9401 102.786C15.1856 102.786 9.34504 98.8756 6.5602 93.1951H13.5368C14.0072 95.0675 15.0894 96.7291 16.6117 97.9163C18.134 99.1035 20.0093 99.7483 21.9398 99.7483C23.8703 99.7483 25.7455 99.1035 27.2678 97.9163C28.7901 96.7291 29.8723 95.0675 30.3427 93.1951H37.3219C37.7924 95.0672 38.8747 96.7285 40.3969 97.9155C41.9192 99.1024 43.7942 99.747 45.7245 99.747C47.6548 99.747 49.5298 99.1024 51.052 97.9155C52.5742 96.7285 53.6565 95.0672 54.1271 93.1951H61.1063C61.5766 95.0675 62.6588 96.7291 64.1811 97.9163C65.7035 99.1035 67.5787 99.7483 69.5092 99.7483C71.4397 99.7483 73.3149 99.1035 74.8372 97.9163C76.3596 96.7291 77.4418 95.0675 77.9121 93.1951H84.8906C85.361 95.0675 86.4432 96.7291 87.9655 97.9163C89.4878 99.1035 91.3631 99.7483 93.2936 99.7483C95.2241 99.7483 97.0993 99.1035 98.6216 97.9163C100.144 96.7291 101.226 95.0675 101.697 93.1951L108.676 93.1939ZM51.3821 19.1609C49.6508 17.1037 47.4902 15.4504 45.0519 14.3171C42.6136 13.1838 39.9569 12.598 37.2681 12.6007C30.6585 12.6007 24.8585 16.0761 21.597 21.3008C23.0485 21.2861 24.5002 21.3217 25.9522 21.4078C27.2682 19.4562 29.0665 17.8782 31.1725 16.8268C33.2785 15.7755 35.6205 15.2866 37.9712 15.4076C40.3219 15.5286 42.6014 16.2554 44.5883 17.5175C46.5752 18.7796 48.2019 20.534 49.3106 22.6103C49.8965 21.4009 50.5898 20.2464 51.3821 19.1609ZM50.7555 24.7882C53.7518 17.3767 61.0151 12.1469 69.5006 12.1469C72.4292 12.1441 75.3232 12.7791 77.9815 14.0078C80.6398 15.2366 82.9986 17.0296 84.8938 19.2622C84.0311 20.4902 83.3057 21.809 82.7305 23.1951C81.4267 20.7123 79.4506 18.6465 77.028 17.2338C74.6055 15.8211 71.8344 15.1185 69.0314 15.2065C66.2284 15.2944 63.5068 16.1693 61.1776 17.7311C58.8484 19.2928 57.0056 21.4785 55.86 24.0382C54.1399 24.1388 52.4319 24.3898 50.7555 24.7882ZM117.415 21.3198C114.155 16.0856 108.35 12.6007 101.731 12.6007C93.9749 12.6007 87.3375 17.3837 84.6027 24.1603C85.9915 24.3105 87.3678 24.5597 88.7211 24.9059C90.4711 19.3875 95.6332 15.3894 101.731 15.3894C103.97 15.3885 106.175 15.9392 108.151 16.9928C110.127 18.0464 111.813 19.5706 113.06 21.4306C114.51 21.3432 115.962 21.3063 117.415 21.3198ZM123.048 26.8439C114.861 25.8357 106.166 26.837 99.1465 29.9218C98.0443 29.0911 96.8854 28.3387 95.6781 27.6699C109.524 21.5375 128.444 22.4167 140.995 28.9325L139.16 32.111C136.073 30.3238 132.568 29.3848 129.001 29.3895C117.782 29.3895 108.688 38.4845 108.688 49.7061V86.9508H101.715V49.7049C101.715 38.4858 92.6198 29.3882 81.3982 29.3882C79.4726 29.3872 77.5567 29.6595 75.7077 30.1971C74.5728 29.3134 73.3749 28.5138 72.1235 27.8047C75.0976 26.7309 78.2361 26.1834 81.3982 26.1869C91.6179 26.1869 100.524 31.8047 105.201 40.12C108.945 33.4731 115.392 28.549 123.051 26.8439H123.048ZM84.8906 49.734C84.8906 43.4295 87.4597 38.4364 91.5711 34.718C90.312 33.8617 88.9494 33.1685 87.516 32.6547C85.0274 34.7218 82.9178 37.1548 81.3134 39.9693C76.614 31.7414 67.7538 26.1907 57.5974 26.1907C54.4671 26.1877 51.3598 26.7242 48.4118 27.7768C49.6457 28.5054 50.834 29.3086 51.9701 30.1819C53.7995 29.656 55.6938 29.3898 57.5974 29.3914C68.8158 29.3914 77.9108 38.4864 77.9108 49.708V86.9527H84.8894L84.8906 49.734ZM54.1094 86.9495V49.7049C54.1094 31.9781 33.8168 24.6148 15.9483 26.8148C23.6142 28.5237 30.0623 33.4509 33.8035 40.1061C35.4469 37.1922 37.6098 34.6037 40.1852 32.4687C41.4907 33.1032 42.7418 33.8441 43.9257 34.6839C41.8343 36.5864 40.1645 38.9059 39.0241 41.4931C37.8836 44.0802 37.2977 46.8775 37.3041 49.7049V86.9495H30.3243V49.6758C30.3243 38.4567 21.2103 29.3623 9.99315 29.3623C6.4263 29.3579 2.92173 30.2968 -0.165173 32.0838L-2 28.9034C16.0875 19.5103 47.3954 21.8299 57.6948 39.9542C59.2754 37.1925 61.3245 34.727 63.7506 32.668C65.1532 33.1743 66.4876 33.8525 67.7234 34.687C65.6306 36.5886 63.9591 38.9072 62.8163 41.4937C61.6735 44.0802 61.0847 46.8772 61.0879 49.7049V86.9495H54.1094ZM94.8015 11.7014C88.7097 4.54245 79.6362 0 69.5 0C59.3638 0 50.2903 4.54245 44.1991 11.7014C45.4238 12.1394 46.604 12.693 47.7239 13.3546C52.8999 7.08424 60.7328 3.08421 69.5006 3.08421C78.2684 3.08421 86.1021 7.08424 91.2768 13.3546C92.3966 12.693 93.5768 12.1394 94.8015 11.7014Z" fill="#CFA029"/>
<path fill-rule="evenodd" clip-rule="evenodd" d="M51.1875 122.43C54.1666 122.43 56.8597 123.815 58.7913 126.152C60.6673 128.422 61.8249 131.595 61.8249 135.26C61.8249 138.925 60.6673 142.096 58.7913 144.368C56.8597 146.705 54.1666 148.09 51.1875 148.09C48.2083 148.09 45.5159 146.705 43.5842 144.368C41.7083 142.098 40.5507 138.929 40.5507 135.26C40.5507 131.592 41.7083 128.425 43.5842 126.152C45.5159 123.815 48.2083 122.43 51.1875 122.43ZM61.6711 124.778C59.2459 122.352 56.0548 120.843 52.6415 120.507C49.2282 120.171 45.8039 121.028 42.9521 122.934C40.1003 124.839 37.9974 127.675 37.0017 130.957C36.006 134.239 36.1792 137.765 37.4917 140.933C38.8042 144.102 41.1748 146.718 44.1996 148.334C47.2245 149.951 50.7163 150.469 54.0802 149.8C57.4442 149.131 60.472 147.316 62.6478 144.665C64.8237 142.014 66.0129 138.69 66.0129 135.26C66.0155 133.313 65.6332 131.385 64.8881 129.586C64.143 127.787 63.0497 126.153 61.6711 124.778Z" fill="#CFA029"/>
<path fill-rule="evenodd" clip-rule="evenodd" d="M36.1474 123.192C32.9328 121.061 28.8017 120.37 25.9852 120.37C23.0574 120.37 20.1852 121.066 17.7067 122.396C15.2282 123.725 13.1497 125.681 11.7915 128.212C10.7206 130.212 10.1016 132.572 10.1016 135.263C10.1016 137.953 10.7206 140.313 11.7915 142.313C13.1484 144.844 15.232 146.806 17.7067 148.13C20.1814 149.453 23.0574 150.155 25.9852 150.155C28.722 150.155 32.879 149.143 36.1752 147.37C35.4876 146.52 34.8736 145.612 34.3398 144.657C31.5777 147.034 28.4948 148.143 25.5903 148.143C24.0965 148.147 22.6176 147.845 21.2447 147.256C19.8718 146.661 18.6386 145.786 17.6244 144.686C15.582 142.479 14.2864 139.279 14.2864 135.268C14.2864 131.258 15.582 128.058 17.6244 125.851C18.6388 124.751 19.8719 123.875 21.2447 123.28C22.6175 122.691 24.0965 122.389 25.5903 122.394C28.4941 122.394 31.5777 123.502 34.3391 125.88C34.8653 124.939 35.4693 124.043 36.1448 123.203" fill="#CFA029"/>
<path fill-rule="evenodd" clip-rule="evenodd" d="M126.183 127.278V149.368H128.899V121.152H126.262L106.22 143.739V121.152H103.504V149.368H106.142L126.183 126.781V127.278Z" fill="#CFA029"/>
<path fill-rule="evenodd" clip-rule="evenodd" d="M93.5074 121.152V133.222C93.5074 135.826 92.4106 138.262 90.6637 140.092C88.9029 141.937 86.4801 143.167 83.8548 143.337C83.6016 143.353 83.358 143.361 83.1238 143.361C80.8174 143.361 78.8478 142.633 77.4149 141.311C75.982 139.988 75.0889 138.076 74.9364 135.707C74.9206 135.462 74.9123 135.216 74.9123 134.97V121.152H70.8281V133.166C70.8281 133.569 70.8458 133.967 70.8705 134.357C71.1237 138.243 72.4338 141.012 74.5016 142.8C76.5693 144.587 79.4048 145.401 82.6934 145.372C83.0618 145.369 83.4415 145.355 83.8327 145.33C85.6048 145.207 87.3332 144.723 88.9112 143.907C90.5364 143.076 91.9849 141.936 93.1764 140.553L93.5093 140.165V149.368H96.2252V121.153L93.5074 121.152Z" fill="#CFA029"/>
</g>
<defs>
<clipPath id="clip0_760_2737">
<rect width="143" height="150.15" fill="white"/>
</clipPath>
</defs>
</svg>
